<mxfile host="app.diagrams.net" modified="2021-10-28T13:16:55.689Z" agent="5.0 (X11)" etag="_x86CL5Mxt7GGBnrM11m" version="15.2.1" type="github">
  <diagram id="C5RBs43oDa-KdzZeNtuy" name="Page-1">
    <mxGraphModel dx="710" dy="1592" grid="1" gridSize="10" guides="1" tooltips="1" connect="1" arrows="1" fold="1" page="1" pageScale="1" pageWidth="827" pageHeight="1169" math="0" shadow="0">
      <root>
        <mxCell id="WIyWlLk6GJQsqaUBKTNV-0" />
        <mxCell id="WIyWlLk6GJQsqaUBKTNV-1" parent="WIyWlLk6GJQsqaUBKTNV-0" />
        <mxCell id="Jjx2fEoYLebvqEYxVv_u-13" value="Deck" style="swimlane;fontStyle=1;align=center;verticalAlign=top;childLayout=stackLayout;horizontal=1;startSize=26;horizontalStack=0;resizeParent=1;resizeParentMax=0;resizeLast=0;collapsible=1;marginBottom=0;" vertex="1" parent="WIyWlLk6GJQsqaUBKTNV-1">
          <mxGeometry x="40" y="-720" width="160" height="34" as="geometry" />
        </mxCell>
        <mxCell id="Jjx2fEoYLebvqEYxVv_u-15" value="" style="line;strokeWidth=1;fillColor=none;align=left;verticalAlign=middle;spacingTop=-1;spacingLeft=3;spacingRight=3;rotatable=0;labelPosition=right;points=[];portConstraint=eastwest;" vertex="1" parent="Jjx2fEoYLebvqEYxVv_u-13">
          <mxGeometry y="26" width="160" height="8" as="geometry" />
        </mxCell>
        <mxCell id="Jjx2fEoYLebvqEYxVv_u-18" value="" style="endArrow=none;html=1;edgeStyle=orthogonalEdgeStyle;exitX=0.25;exitY=0;exitDx=0;exitDy=0;entryX=0.75;entryY=0;entryDx=0;entryDy=0;" edge="1" parent="WIyWlLk6GJQsqaUBKTNV-1" source="Jjx2fEoYLebvqEYxVv_u-28" target="Jjx2fEoYLebvqEYxVv_u-13">
          <mxGeometry relative="1" as="geometry">
            <mxPoint x="340" y="-520" as="sourcePoint" />
            <mxPoint x="500" y="-520" as="targetPoint" />
          </mxGeometry>
        </mxCell>
        <mxCell id="Jjx2fEoYLebvqEYxVv_u-19" value="0..20" style="edgeLabel;resizable=0;html=1;align=left;verticalAlign=bottom;" connectable="0" vertex="1" parent="Jjx2fEoYLebvqEYxVv_u-18">
          <mxGeometry x="-1" relative="1" as="geometry" />
        </mxCell>
        <mxCell id="Jjx2fEoYLebvqEYxVv_u-20" value="0..*" style="edgeLabel;resizable=0;html=1;align=right;verticalAlign=bottom;" connectable="0" vertex="1" parent="Jjx2fEoYLebvqEYxVv_u-18">
          <mxGeometry x="1" relative="1" as="geometry" />
        </mxCell>
        <mxCell id="Jjx2fEoYLebvqEYxVv_u-24" value="Duel" style="swimlane;fontStyle=1;align=center;verticalAlign=top;childLayout=stackLayout;horizontal=1;startSize=26;horizontalStack=0;resizeParent=1;resizeParentMax=0;resizeLast=0;collapsible=1;marginBottom=0;" vertex="1" parent="WIyWlLk6GJQsqaUBKTNV-1">
          <mxGeometry x="240" y="-1040" width="160" height="34" as="geometry" />
        </mxCell>
        <mxCell id="Jjx2fEoYLebvqEYxVv_u-26" value="" style="line;strokeWidth=1;fillColor=none;align=left;verticalAlign=middle;spacingTop=-1;spacingLeft=3;spacingRight=3;rotatable=0;labelPosition=right;points=[];portConstraint=eastwest;" vertex="1" parent="Jjx2fEoYLebvqEYxVv_u-24">
          <mxGeometry y="26" width="160" height="8" as="geometry" />
        </mxCell>
        <mxCell id="Jjx2fEoYLebvqEYxVv_u-28" value="Carte" style="swimlane;fontStyle=1;align=center;verticalAlign=top;childLayout=stackLayout;horizontal=1;startSize=26;horizontalStack=0;resizeParent=1;resizeParentMax=0;resizeLast=0;collapsible=1;marginBottom=0;" vertex="1" parent="WIyWlLk6GJQsqaUBKTNV-1">
          <mxGeometry x="240" y="-720" width="160" height="34" as="geometry" />
        </mxCell>
        <mxCell id="Jjx2fEoYLebvqEYxVv_u-30" value="" style="line;strokeWidth=1;fillColor=none;align=left;verticalAlign=middle;spacingTop=-1;spacingLeft=3;spacingRight=3;rotatable=0;labelPosition=right;points=[];portConstraint=eastwest;" vertex="1" parent="Jjx2fEoYLebvqEYxVv_u-28">
          <mxGeometry y="26" width="160" height="8" as="geometry" />
        </mxCell>
        <mxCell id="Jjx2fEoYLebvqEYxVv_u-33" value="" style="endArrow=none;html=1;edgeStyle=orthogonalEdgeStyle;exitX=0.5;exitY=0;exitDx=0;exitDy=0;entryX=0.5;entryY=1;entryDx=0;entryDy=0;" edge="1" parent="WIyWlLk6GJQsqaUBKTNV-1" source="Jjx2fEoYLebvqEYxVv_u-45" target="Jjx2fEoYLebvqEYxVv_u-24">
          <mxGeometry relative="1" as="geometry">
            <mxPoint x="400" y="-70" as="sourcePoint" />
            <mxPoint x="250" y="-170" as="targetPoint" />
          </mxGeometry>
        </mxCell>
        <mxCell id="Jjx2fEoYLebvqEYxVv_u-34" value="2" style="edgeLabel;resizable=0;html=1;align=left;verticalAlign=bottom;" connectable="0" vertex="1" parent="Jjx2fEoYLebvqEYxVv_u-33">
          <mxGeometry x="-1" relative="1" as="geometry" />
        </mxCell>
        <mxCell id="Jjx2fEoYLebvqEYxVv_u-35" value="0..*" style="edgeLabel;resizable=0;html=1;align=right;verticalAlign=bottom;" connectable="0" vertex="1" parent="Jjx2fEoYLebvqEYxVv_u-33">
          <mxGeometry x="1" relative="1" as="geometry" />
        </mxCell>
        <mxCell id="Jjx2fEoYLebvqEYxVv_u-37" value="Guilde" style="swimlane;fontStyle=1;align=center;verticalAlign=top;childLayout=stackLayout;horizontal=1;startSize=26;horizontalStack=0;resizeParent=1;resizeParentMax=0;resizeLast=0;collapsible=1;marginBottom=0;" vertex="1" parent="WIyWlLk6GJQsqaUBKTNV-1">
          <mxGeometry x="480" y="-1040" width="160" height="34" as="geometry" />
        </mxCell>
        <mxCell id="Jjx2fEoYLebvqEYxVv_u-39" value="" style="line;strokeWidth=1;fillColor=none;align=left;verticalAlign=middle;spacingTop=-1;spacingLeft=3;spacingRight=3;rotatable=0;labelPosition=right;points=[];portConstraint=eastwest;" vertex="1" parent="Jjx2fEoYLebvqEYxVv_u-37">
          <mxGeometry y="26" width="160" height="8" as="geometry" />
        </mxCell>
        <mxCell id="Jjx2fEoYLebvqEYxVv_u-41" value="" style="endArrow=none;html=1;edgeStyle=orthogonalEdgeStyle;exitX=0.75;exitY=0;exitDx=0;exitDy=0;entryX=0.5;entryY=1;entryDx=0;entryDy=0;" edge="1" parent="WIyWlLk6GJQsqaUBKTNV-1" source="Jjx2fEoYLebvqEYxVv_u-103" target="Jjx2fEoYLebvqEYxVv_u-37">
          <mxGeometry relative="1" as="geometry">
            <mxPoint x="400" y="-10" as="sourcePoint" />
            <mxPoint x="560" y="-10" as="targetPoint" />
          </mxGeometry>
        </mxCell>
        <mxCell id="Jjx2fEoYLebvqEYxVv_u-42" value="1..*" style="edgeLabel;resizable=0;html=1;align=left;verticalAlign=bottom;" connectable="0" vertex="1" parent="Jjx2fEoYLebvqEYxVv_u-41">
          <mxGeometry x="-1" relative="1" as="geometry" />
        </mxCell>
        <mxCell id="Jjx2fEoYLebvqEYxVv_u-43" value="0..1" style="edgeLabel;resizable=0;html=1;align=right;verticalAlign=bottom;" connectable="0" vertex="1" parent="Jjx2fEoYLebvqEYxVv_u-41">
          <mxGeometry x="1" relative="1" as="geometry" />
        </mxCell>
        <mxCell id="Jjx2fEoYLebvqEYxVv_u-49" value="Tournoi" style="swimlane;fontStyle=1;align=center;verticalAlign=top;childLayout=stackLayout;horizontal=1;startSize=26;horizontalStack=0;resizeParent=1;resizeParentMax=0;resizeLast=0;collapsible=1;marginBottom=0;" vertex="1" parent="WIyWlLk6GJQsqaUBKTNV-1">
          <mxGeometry x="240" y="-1160" width="160" height="34" as="geometry" />
        </mxCell>
        <mxCell id="Jjx2fEoYLebvqEYxVv_u-51" value="" style="line;strokeWidth=1;fillColor=none;align=left;verticalAlign=middle;spacingTop=-1;spacingLeft=3;spacingRight=3;rotatable=0;labelPosition=right;points=[];portConstraint=eastwest;" vertex="1" parent="Jjx2fEoYLebvqEYxVv_u-49">
          <mxGeometry y="26" width="160" height="8" as="geometry" />
        </mxCell>
        <mxCell id="Jjx2fEoYLebvqEYxVv_u-53" value="" style="endArrow=none;html=1;edgeStyle=orthogonalEdgeStyle;entryX=0.5;entryY=1;entryDx=0;entryDy=0;exitX=0.5;exitY=0;exitDx=0;exitDy=0;" edge="1" parent="WIyWlLk6GJQsqaUBKTNV-1" source="Jjx2fEoYLebvqEYxVv_u-24" target="Jjx2fEoYLebvqEYxVv_u-49">
          <mxGeometry relative="1" as="geometry">
            <mxPoint x="310" y="-180" as="sourcePoint" />
            <mxPoint x="470" y="-180" as="targetPoint" />
          </mxGeometry>
        </mxCell>
        <mxCell id="Jjx2fEoYLebvqEYxVv_u-54" value="&lt;div&gt;0..*&lt;/div&gt;" style="edgeLabel;resizable=0;html=1;align=left;verticalAlign=bottom;" connectable="0" vertex="1" parent="Jjx2fEoYLebvqEYxVv_u-53">
          <mxGeometry x="-1" relative="1" as="geometry" />
        </mxCell>
        <mxCell id="Jjx2fEoYLebvqEYxVv_u-55" value="0..1" style="edgeLabel;resizable=0;html=1;align=right;verticalAlign=bottom;" connectable="0" vertex="1" parent="Jjx2fEoYLebvqEYxVv_u-53">
          <mxGeometry x="1" relative="1" as="geometry" />
        </mxCell>
        <mxCell id="Jjx2fEoYLebvqEYxVv_u-83" value="Thread (Forum)" style="swimlane;fontStyle=1;align=center;verticalAlign=top;childLayout=stackLayout;horizontal=1;startSize=26;horizontalStack=0;resizeParent=1;resizeParentMax=0;resizeLast=0;collapsible=1;marginBottom=0;" vertex="1" parent="WIyWlLk6GJQsqaUBKTNV-1">
          <mxGeometry x="640" y="-840" width="160" height="34" as="geometry" />
        </mxCell>
        <mxCell id="Jjx2fEoYLebvqEYxVv_u-85" value="" style="line;strokeWidth=1;fillColor=none;align=left;verticalAlign=middle;spacingTop=-1;spacingLeft=3;spacingRight=3;rotatable=0;labelPosition=right;points=[];portConstraint=eastwest;" vertex="1" parent="Jjx2fEoYLebvqEYxVv_u-83">
          <mxGeometry y="26" width="160" height="8" as="geometry" />
        </mxCell>
        <mxCell id="Jjx2fEoYLebvqEYxVv_u-87" value="" style="endArrow=none;html=1;edgeStyle=orthogonalEdgeStyle;entryX=0.5;entryY=0;entryDx=0;entryDy=0;exitX=1;exitY=0.25;exitDx=0;exitDy=0;startArrow=none;" edge="1" parent="WIyWlLk6GJQsqaUBKTNV-1" source="Jjx2fEoYLebvqEYxVv_u-103" target="Jjx2fEoYLebvqEYxVv_u-83">
          <mxGeometry relative="1" as="geometry">
            <mxPoint x="530" y="-140" as="sourcePoint" />
            <mxPoint x="690" y="-50" as="targetPoint" />
          </mxGeometry>
        </mxCell>
        <mxCell id="Jjx2fEoYLebvqEYxVv_u-89" value="0..*" style="edgeLabel;resizable=0;html=1;align=right;verticalAlign=bottom;" connectable="0" vertex="1" parent="Jjx2fEoYLebvqEYxVv_u-87">
          <mxGeometry x="1" relative="1" as="geometry" />
        </mxCell>
        <mxCell id="Jjx2fEoYLebvqEYxVv_u-90" value="Message" style="swimlane;fontStyle=1;align=center;verticalAlign=top;childLayout=stackLayout;horizontal=1;startSize=26;horizontalStack=0;resizeParent=1;resizeParentMax=0;resizeLast=0;collapsible=1;marginBottom=0;" vertex="1" parent="WIyWlLk6GJQsqaUBKTNV-1">
          <mxGeometry x="640" y="-720" width="160" height="34" as="geometry" />
        </mxCell>
        <mxCell id="Jjx2fEoYLebvqEYxVv_u-92" value="" style="line;strokeWidth=1;fillColor=none;align=left;verticalAlign=middle;spacingTop=-1;spacingLeft=3;spacingRight=3;rotatable=0;labelPosition=right;points=[];portConstraint=eastwest;" vertex="1" parent="Jjx2fEoYLebvqEYxVv_u-90">
          <mxGeometry y="26" width="160" height="8" as="geometry" />
        </mxCell>
        <mxCell id="Jjx2fEoYLebvqEYxVv_u-100" value="" style="endArrow=none;html=1;edgeStyle=orthogonalEdgeStyle;exitX=0.75;exitY=1;exitDx=0;exitDy=0;entryX=0.5;entryY=0;entryDx=0;entryDy=0;" edge="1" parent="WIyWlLk6GJQsqaUBKTNV-1" source="Jjx2fEoYLebvqEYxVv_u-49" target="Jjx2fEoYLebvqEYxVv_u-37">
          <mxGeometry relative="1" as="geometry">
            <mxPoint x="350" y="-310" as="sourcePoint" />
            <mxPoint x="510" y="-310" as="targetPoint" />
          </mxGeometry>
        </mxCell>
        <mxCell id="Jjx2fEoYLebvqEYxVv_u-101" value="0..*" style="edgeLabel;resizable=0;html=1;align=left;verticalAlign=bottom;" connectable="0" vertex="1" parent="Jjx2fEoYLebvqEYxVv_u-100">
          <mxGeometry x="-1" relative="1" as="geometry" />
        </mxCell>
        <mxCell id="Jjx2fEoYLebvqEYxVv_u-102" value="0..*" style="edgeLabel;resizable=0;html=1;align=right;verticalAlign=bottom;" connectable="0" vertex="1" parent="Jjx2fEoYLebvqEYxVv_u-100">
          <mxGeometry x="1" relative="1" as="geometry" />
        </mxCell>
        <mxCell id="Jjx2fEoYLebvqEYxVv_u-103" value="Joueur" style="swimlane;fontStyle=1;align=center;verticalAlign=top;childLayout=stackLayout;horizontal=1;startSize=26;horizontalStack=0;resizeParent=1;resizeParentMax=0;resizeLast=0;collapsible=1;marginBottom=0;" vertex="1" parent="WIyWlLk6GJQsqaUBKTNV-1">
          <mxGeometry x="440" y="-880" width="160" height="34" as="geometry" />
        </mxCell>
        <mxCell id="Jjx2fEoYLebvqEYxVv_u-105" value="" style="line;strokeWidth=1;fillColor=none;align=left;verticalAlign=middle;spacingTop=-1;spacingLeft=3;spacingRight=3;rotatable=0;labelPosition=right;points=[];portConstraint=eastwest;" vertex="1" parent="Jjx2fEoYLebvqEYxVv_u-103">
          <mxGeometry y="26" width="160" height="8" as="geometry" />
        </mxCell>
        <mxCell id="Jjx2fEoYLebvqEYxVv_u-107" value="Bot" style="swimlane;fontStyle=1;align=center;verticalAlign=top;childLayout=stackLayout;horizontal=1;startSize=26;horizontalStack=0;resizeParent=1;resizeParentMax=0;resizeLast=0;collapsible=1;marginBottom=0;" vertex="1" parent="WIyWlLk6GJQsqaUBKTNV-1">
          <mxGeometry x="40" y="-880" width="160" height="34" as="geometry" />
        </mxCell>
        <mxCell id="Jjx2fEoYLebvqEYxVv_u-109" value="" style="line;strokeWidth=1;fillColor=none;align=left;verticalAlign=middle;spacingTop=-1;spacingLeft=3;spacingRight=3;rotatable=0;labelPosition=right;points=[];portConstraint=eastwest;" vertex="1" parent="Jjx2fEoYLebvqEYxVv_u-107">
          <mxGeometry y="26" width="160" height="8" as="geometry" />
        </mxCell>
        <mxCell id="Jjx2fEoYLebvqEYxVv_u-111" value="" style="endArrow=open;html=1;endSize=12;startArrow=diamondThin;startSize=14;startFill=0;edgeStyle=orthogonalEdgeStyle;align=left;verticalAlign=bottom;exitX=0.5;exitY=0;exitDx=0;exitDy=0;entryX=0;entryY=0.25;entryDx=0;entryDy=0;" edge="1" parent="WIyWlLk6GJQsqaUBKTNV-1" source="Jjx2fEoYLebvqEYxVv_u-107" target="Jjx2fEoYLebvqEYxVv_u-45">
          <mxGeometry x="-1" y="3" relative="1" as="geometry">
            <mxPoint x="190" y="-120" as="sourcePoint" />
            <mxPoint x="200" y="-890" as="targetPoint" />
          </mxGeometry>
        </mxCell>
        <mxCell id="Jjx2fEoYLebvqEYxVv_u-45" value="Compte" style="swimlane;fontStyle=1;align=center;verticalAlign=top;childLayout=stackLayout;horizontal=1;startSize=26;horizontalStack=0;resizeParent=1;resizeParentMax=0;resizeLast=0;collapsible=1;marginBottom=0;" vertex="1" parent="WIyWlLk6GJQsqaUBKTNV-1">
          <mxGeometry x="240" y="-920" width="160" height="34" as="geometry" />
        </mxCell>
        <mxCell id="Jjx2fEoYLebvqEYxVv_u-47" value="" style="line;strokeWidth=1;fillColor=none;align=left;verticalAlign=middle;spacingTop=-1;spacingLeft=3;spacingRight=3;rotatable=0;labelPosition=right;points=[];portConstraint=eastwest;" vertex="1" parent="Jjx2fEoYLebvqEYxVv_u-45">
          <mxGeometry y="26" width="160" height="8" as="geometry" />
        </mxCell>
        <mxCell id="Jjx2fEoYLebvqEYxVv_u-114" value="&lt;div&gt;&lt;br&gt;&lt;/div&gt;&lt;div&gt;&lt;br&gt;&lt;/div&gt;" style="endArrow=openThin;html=1;endSize=12;startArrow=diamondThin;startSize=14;startFill=0;edgeStyle=orthogonalEdgeStyle;align=left;verticalAlign=bottom;endFill=0;exitX=0.5;exitY=0;exitDx=0;exitDy=0;entryX=1;entryY=0.25;entryDx=0;entryDy=0;" edge="1" parent="WIyWlLk6GJQsqaUBKTNV-1" source="Jjx2fEoYLebvqEYxVv_u-103" target="Jjx2fEoYLebvqEYxVv_u-45">
          <mxGeometry x="-1" y="3" relative="1" as="geometry">
            <mxPoint x="610" y="-850" as="sourcePoint" />
            <mxPoint x="390" y="-870" as="targetPoint" />
          </mxGeometry>
        </mxCell>
        <mxCell id="Jjx2fEoYLebvqEYxVv_u-63" value="Vente" style="swimlane;fontStyle=1;align=center;verticalAlign=top;childLayout=stackLayout;horizontal=1;startSize=26;horizontalStack=0;resizeParent=1;resizeParentMax=0;resizeLast=0;collapsible=1;marginBottom=0;" vertex="1" parent="WIyWlLk6GJQsqaUBKTNV-1">
          <mxGeometry x="440" y="-720" width="160" height="34" as="geometry" />
        </mxCell>
        <mxCell id="Jjx2fEoYLebvqEYxVv_u-65" value="" style="line;strokeWidth=1;fillColor=none;align=left;verticalAlign=middle;spacingTop=-1;spacingLeft=3;spacingRight=3;rotatable=0;labelPosition=right;points=[];portConstraint=eastwest;" vertex="1" parent="Jjx2fEoYLebvqEYxVv_u-63">
          <mxGeometry y="26" width="160" height="8" as="geometry" />
        </mxCell>
        <mxCell id="Jjx2fEoYLebvqEYxVv_u-119" value="" style="endArrow=none;html=1;edgeStyle=orthogonalEdgeStyle;entryX=0.5;entryY=0;entryDx=0;entryDy=0;exitX=0.5;exitY=1;exitDx=0;exitDy=0;" edge="1" parent="WIyWlLk6GJQsqaUBKTNV-1" source="Jjx2fEoYLebvqEYxVv_u-103" target="Jjx2fEoYLebvqEYxVv_u-63">
          <mxGeometry relative="1" as="geometry">
            <mxPoint x="330" y="-790" as="sourcePoint" />
            <mxPoint x="490" y="-790" as="targetPoint" />
          </mxGeometry>
        </mxCell>
        <mxCell id="Jjx2fEoYLebvqEYxVv_u-120" value="1..2" style="edgeLabel;resizable=0;html=1;align=left;verticalAlign=bottom;" connectable="0" vertex="1" parent="Jjx2fEoYLebvqEYxVv_u-119">
          <mxGeometry x="-1" relative="1" as="geometry" />
        </mxCell>
        <mxCell id="Jjx2fEoYLebvqEYxVv_u-121" value="0..*" style="edgeLabel;resizable=0;html=1;align=right;verticalAlign=bottom;" connectable="0" vertex="1" parent="Jjx2fEoYLebvqEYxVv_u-119">
          <mxGeometry x="1" relative="1" as="geometry" />
        </mxCell>
        <mxCell id="Jjx2fEoYLebvqEYxVv_u-122" value="" style="endArrow=none;html=1;edgeStyle=orthogonalEdgeStyle;entryX=0.5;entryY=1;entryDx=0;entryDy=0;exitX=0.5;exitY=0;exitDx=0;exitDy=0;" edge="1" parent="WIyWlLk6GJQsqaUBKTNV-1" source="Jjx2fEoYLebvqEYxVv_u-90" target="Jjx2fEoYLebvqEYxVv_u-83">
          <mxGeometry relative="1" as="geometry">
            <mxPoint x="390" y="-550" as="sourcePoint" />
            <mxPoint x="550" y="-550" as="targetPoint" />
          </mxGeometry>
        </mxCell>
        <mxCell id="Jjx2fEoYLebvqEYxVv_u-123" value="1..*" style="edgeLabel;resizable=0;html=1;align=left;verticalAlign=bottom;" connectable="0" vertex="1" parent="Jjx2fEoYLebvqEYxVv_u-122">
          <mxGeometry x="-1" relative="1" as="geometry" />
        </mxCell>
        <mxCell id="Jjx2fEoYLebvqEYxVv_u-124" value="1" style="edgeLabel;resizable=0;html=1;align=right;verticalAlign=bottom;" connectable="0" vertex="1" parent="Jjx2fEoYLebvqEYxVv_u-122">
          <mxGeometry x="1" relative="1" as="geometry" />
        </mxCell>
        <mxCell id="Jjx2fEoYLebvqEYxVv_u-125" value="" style="endArrow=none;html=1;edgeStyle=orthogonalEdgeStyle;entryX=0.25;entryY=0;entryDx=0;entryDy=0;exitX=0.75;exitY=1;exitDx=0;exitDy=0;" edge="1" parent="WIyWlLk6GJQsqaUBKTNV-1" source="Jjx2fEoYLebvqEYxVv_u-103" target="Jjx2fEoYLebvqEYxVv_u-90">
          <mxGeometry relative="1" as="geometry">
            <mxPoint x="400" y="-780" as="sourcePoint" />
            <mxPoint x="560" y="-780" as="targetPoint" />
            <Array as="points">
              <mxPoint x="560" y="-760" />
              <mxPoint x="680" y="-760" />
            </Array>
          </mxGeometry>
        </mxCell>
        <mxCell id="Jjx2fEoYLebvqEYxVv_u-126" value="1" style="edgeLabel;resizable=0;html=1;align=left;verticalAlign=bottom;" connectable="0" vertex="1" parent="Jjx2fEoYLebvqEYxVv_u-125">
          <mxGeometry x="-1" relative="1" as="geometry" />
        </mxCell>
        <mxCell id="Jjx2fEoYLebvqEYxVv_u-127" value="0..*" style="edgeLabel;resizable=0;html=1;align=right;verticalAlign=bottom;" connectable="0" vertex="1" parent="Jjx2fEoYLebvqEYxVv_u-125">
          <mxGeometry x="1" relative="1" as="geometry" />
        </mxCell>
        <mxCell id="Jjx2fEoYLebvqEYxVv_u-128" value="" style="endArrow=none;html=1;edgeStyle=orthogonalEdgeStyle;entryX=0.5;entryY=1;entryDx=0;entryDy=0;exitX=0.5;exitY=0;exitDx=0;exitDy=0;" edge="1" parent="WIyWlLk6GJQsqaUBKTNV-1" source="Jjx2fEoYLebvqEYxVv_u-28" target="Jjx2fEoYLebvqEYxVv_u-45">
          <mxGeometry relative="1" as="geometry">
            <mxPoint x="300" y="-780" as="sourcePoint" />
            <mxPoint x="460" y="-780" as="targetPoint" />
          </mxGeometry>
        </mxCell>
        <mxCell id="Jjx2fEoYLebvqEYxVv_u-129" value="0..*" style="edgeLabel;resizable=0;html=1;align=left;verticalAlign=bottom;" connectable="0" vertex="1" parent="Jjx2fEoYLebvqEYxVv_u-128">
          <mxGeometry x="-1" relative="1" as="geometry" />
        </mxCell>
        <mxCell id="Jjx2fEoYLebvqEYxVv_u-130" value="1" style="edgeLabel;resizable=0;html=1;align=right;verticalAlign=bottom;" connectable="0" vertex="1" parent="Jjx2fEoYLebvqEYxVv_u-128">
          <mxGeometry x="1" relative="1" as="geometry" />
        </mxCell>
        <mxCell id="Jjx2fEoYLebvqEYxVv_u-131" value="" style="endArrow=none;html=1;edgeStyle=orthogonalEdgeStyle;entryX=0.25;entryY=0;entryDx=0;entryDy=0;exitX=0.75;exitY=0;exitDx=0;exitDy=0;" edge="1" parent="WIyWlLk6GJQsqaUBKTNV-1" source="Jjx2fEoYLebvqEYxVv_u-28" target="Jjx2fEoYLebvqEYxVv_u-63">
          <mxGeometry relative="1" as="geometry">
            <mxPoint x="430" y="-760" as="sourcePoint" />
            <mxPoint x="460" y="-780" as="targetPoint" />
            <Array as="points">
              <mxPoint x="360" y="-740" />
              <mxPoint x="480" y="-740" />
            </Array>
          </mxGeometry>
        </mxCell>
        <mxCell id="Jjx2fEoYLebvqEYxVv_u-132" value="1..*" style="edgeLabel;resizable=0;html=1;align=left;verticalAlign=bottom;" connectable="0" vertex="1" parent="Jjx2fEoYLebvqEYxVv_u-131">
          <mxGeometry x="-1" relative="1" as="geometry" />
        </mxCell>
        <mxCell id="Jjx2fEoYLebvqEYxVv_u-133" value="0..*" style="edgeLabel;resizable=0;html=1;align=right;verticalAlign=bottom;" connectable="0" vertex="1" parent="Jjx2fEoYLebvqEYxVv_u-131">
          <mxGeometry x="1" relative="1" as="geometry" />
        </mxCell>
        <mxCell id="Jjx2fEoYLebvqEYxVv_u-135" value="" style="endArrow=none;html=1;edgeStyle=orthogonalEdgeStyle;entryX=0.25;entryY=1;entryDx=0;entryDy=0;exitX=0.5;exitY=0;exitDx=0;exitDy=0;" edge="1" parent="WIyWlLk6GJQsqaUBKTNV-1" source="Jjx2fEoYLebvqEYxVv_u-13" target="Jjx2fEoYLebvqEYxVv_u-45">
          <mxGeometry relative="1" as="geometry">
            <mxPoint x="300" y="-780" as="sourcePoint" />
            <mxPoint x="460" y="-780" as="targetPoint" />
            <Array as="points">
              <mxPoint x="120" y="-760" />
              <mxPoint x="280" y="-760" />
            </Array>
          </mxGeometry>
        </mxCell>
        <mxCell id="Jjx2fEoYLebvqEYxVv_u-136" value="0..*" style="edgeLabel;resizable=0;html=1;align=left;verticalAlign=bottom;" connectable="0" vertex="1" parent="Jjx2fEoYLebvqEYxVv_u-135">
          <mxGeometry x="-1" relative="1" as="geometry" />
        </mxCell>
        <mxCell id="Jjx2fEoYLebvqEYxVv_u-137" value="1" style="edgeLabel;resizable=0;html=1;align=right;verticalAlign=bottom;" connectable="0" vertex="1" parent="Jjx2fEoYLebvqEYxVv_u-135">
          <mxGeometry x="1" relative="1" as="geometry" />
        </mxCell>
      </root>
    </mxGraphModel>
  </diagram>
</mxfile>
